<?xml version="1.0" standalone="no"?><!DOCTYPE svg PUBLIC "-//W3C//DTD SVG 1.1//EN" "http://www.w3.org/Graphics/SVG/1.1/DTD/svg11.dtd" ><svg xmlns="http://www.w3.org/2000/svg"><metadata>Generated by Glyphter</metadata><defs><font id="Glyphter" horiz-adv-x="0"><font-face units-per-em="1024" ascent="1024" descent="0" font-family="Glyphter" font-weight="normal" /><missing-glyph horiz-adv-x="0" /><glyph unicode="&#x0041;" d="M480.404,544.096C480.404,544.096,288.547,544.096,288.547,544.096C263.925,544.096,248.545,517.46,260.856,496.131C266.579,486.251,277.131,480.143,288.547,480.143C288.547,480.143,480.404,480.143,480.404,480.143C480.404,480.143,480.404,288.286,480.404,288.286C480.404,263.664,507.04,248.284,528.369,260.595C538.249,266.318,544.357,276.87,544.357,288.286C544.357,288.286,544.357,480.143,544.357,480.143C544.357,480.143,736.214,480.143,736.214,480.143C760.836,480.143,776.216,506.779,763.905,528.108C758.182,537.988,747.63,544.096,736.214,544.096C736.214,544.096,544.357,544.096,544.357,544.096C544.357,544.096,544.357,735.953,544.357,735.953C544.357,760.575,517.721,775.955,496.392,763.644C486.512,757.921,480.404,747.369,480.404,735.953C480.404,735.953,480.404,544.096,480.404,544.096M512.38,0.5C118.529,0.5,-127.624,426.839,69.318,767.929C266.228,1109.02,758.533,1109.02,955.443,767.929C1000.37,690.163,1024,601.941,1024,512.12C1024,229.546,794.954,0.5,512.38,0.5C512.38,0.5,512.38,0.5,512.38,0.5" class="icon-add"/><glyph unicode="&#x0042;" d="M512,1009.7C229.12,1009.7,0,810.02,0,563.94C2.112,434.276,63.84,312.804,167.36,234.66C156.48,166.82,112,93.54,32,14.5C218.24,29.86,344.224,67.204,409.92,126.5C443.328,120.836,477.152,117.956,511.04,117.86C592.32,117.54,672.704,134.564,746.88,167.78C809.728,195.812,866.144,236.42,912.64,287.14C983.2,362.148,1022.976,460.964,1024,563.94C1024,810.02,794.88,1009.7,512,1009.7C512,1009.7,512,1009.7,512,1009.7M749.44,558.5C749.44,540.836,735.104,526.5,717.44,526.5C717.44,526.5,576,526.5,576,526.5C576,526.5,576,401.7,576,401.7C576,384.036,561.664,369.7,544,369.7C544,369.7,512,369.7,512,369.7C494.336,369.7,480,384.036,480,401.7C480,401.7,480,526.5,480,526.5C480,526.5,352,526.5,352,526.5C334.336,526.5,320,540.836,320,558.5C320,558.5,320,593.7,320,593.7C320,611.364,334.336,625.7,352,625.7C352,625.7,480,625.7,480,625.7C480,625.7,480,753.7,480,753.7C480,771.364,494.336,785.7,512,785.7C512,785.7,544,785.7,544,785.7C561.664,785.7,576,771.364,576,753.7C576,753.7,576,625.7,576,625.7C576,625.7,717.44,625.7,717.44,625.7C735.104,625.7,749.44,611.364,749.44,593.7C749.44,593.7,749.44,558.5,749.44,558.5" class="icon-add-comment"/><glyph unicode="&#x0043;" d="M241.756,859.98C210.081,900.022,210.081,956.541,241.756,996.582C270.784,1033.806,327.132,1033.806,356.16,996.582C356.16,996.582,783.04,580.801,783.04,580.801C814.714,540.759,814.714,484.241,783.04,444.199C783.04,444.199,356.16,28.418,356.16,28.418C327.132,-8.806,270.784,-8.806,241.756,28.418C210.081,68.459,210.081,124.978,241.756,165.02C241.756,165.02,608.019,512.5,608.019,512.5C608.019,512.5,241.756,859.98,241.756,859.98" class="icon-arrow"/><glyph unicode="&#x0044;" d="M912.23,540.311C912.23,540.311,512.035,895.4,512.035,895.4C512.035,895.4,111.84,540.311,111.84,540.311C111.84,540.311,48.5,612.289,48.5,612.289C48.5,612.289,512.035,1024,512.035,1024C512.035,1024,975.57,612.289,975.57,612.289C975.57,612.289,912.23,540.311,912.23,540.311C912.23,540.311,912.23,540.311,912.23,540.311M464.05,959.7C464.05,959.7,560.02,959.7,560.02,959.7C560.02,959.7,560.02,0,560.02,0C560.02,0,464.05,0,464.05,0C464.05,0,464.05,959.7,464.05,959.7" class="icon-arrow-sort"/><glyph unicode="&#x0045;" d="M0.5,939.167C0.5,939.167,128.5,939.167,128.5,939.167C128.5,939.167,128.5,555.167,128.5,555.167C128.5,555.167,0.5,555.167,0.5,555.167C0.5,555.167,0.5,939.167,0.5,939.167M896.5,939.167C896.5,939.167,1024.5,939.167,1024.5,939.167C1024.5,939.167,1024.5,555.167,1024.5,555.167C1024.5,555.167,896.5,555.167,896.5,555.167C896.5,555.167,896.5,939.167,896.5,939.167M597.833,725.833C597.833,725.833,597.833,0.5,597.833,0.5C597.833,0.5,213.833,0.5,213.833,0.5C213.833,0.5,213.833,725.833,213.833,725.833C213.833,725.833,597.833,725.833,597.833,725.833M725.833,725.833C725.833,725.833,811.167,725.833,811.167,725.833C811.167,725.833,811.167,0.5,811.167,0.5C811.167,0.5,725.833,0.5,725.833,0.5C725.833,0.5,725.833,725.833,725.833,725.833M299.167,427.167C299.167,427.167,299.167,85.833,299.167,85.833C299.167,85.833,384.5,85.833,384.5,85.833C384.5,85.833,384.5,427.167,384.5,427.167C384.5,427.167,299.167,427.167,299.167,427.167M0.5,1024.5C0.5,1024.5,1024.5,1024.5,1024.5,1024.5C1024.5,1024.5,1024.5,811.167,1024.5,811.167C1024.5,811.167,0.5,811.167,0.5,811.167C0.5,811.167,0.5,1024.5,0.5,1024.5" class="icon-atm"/><glyph unicode="&#x0046;" d="M1,512C1,118.446,427.034,-127.529,767.862,69.265C926.04,160.573,1023.483,329.351,1023.483,512C1023.483,905.554,597.448,1151.529,256.621,954.735C98.443,863.427,1,694.649,1,512M326.831,426.793C326.831,426.793,414.765,477.917,414.765,477.917C442.338,455.593,476.795,443.562,512.241,443.834C549.187,443.46,585.178,455.457,614.49,477.917C614.49,477.917,698.333,427.816,698.333,427.816C730.848,408.082,750.752,372.806,750.821,334.77C750.65,300.96,723.282,273.591,689.472,273.421C689.472,273.421,335.011,273.421,335.011,273.421C301.201,273.591,273.832,300.96,273.662,334.77C273.696,372.738,293.941,407.809,326.831,426.793C326.831,426.793,326.831,426.793,326.831,426.793M491.792,818.745C491.792,818.745,531.328,818.745,531.328,818.745C587.803,818.745,633.576,772.972,633.576,716.497C633.917,711.861,633.917,707.158,633.576,702.523C633.576,702.523,620.624,607.432,620.624,607.432C609.105,523.724,511.321,483.882,444.587,535.688C421.956,553.274,407.096,579.041,403.177,607.432C403.177,607.432,391.248,703.886,391.248,703.886C383.749,759.543,422.57,810.838,478.159,818.745C478.159,818.745,491.792,818.745,491.792,818.745" class="icon-auth"/><glyph unicode="&#x0047;" d="M512.882,1023.736C119.043,1023.736,-127.109,597.387,69.8,256.309C266.73,-84.77,759.034,-84.77,955.965,256.309C1000.859,334.075,1024.5,422.308,1024.5,512.118C1024.5,794.68,795.444,1023.736,512.882,1023.736C512.882,1023.736,512.882,1023.736,512.882,1023.736M640.787,694.168C640.787,694.168,578.966,694.168,578.966,694.168C564.662,694.296,553.556,681.698,555.517,667.522C555.517,667.522,555.517,610.178,555.517,610.178C555.517,610.178,640.787,610.178,640.787,610.178C640.787,610.178,630.554,512.118,630.554,512.118C630.554,512.118,555.517,512.118,555.517,512.118C555.517,512.118,555.517,234.991,555.517,234.991C555.517,234.991,439.763,234.991,439.763,234.991C439.763,234.991,439.763,512.118,439.763,512.118C439.763,512.118,384.978,512.118,384.978,512.118C384.978,512.118,384.978,610.178,384.978,610.178C384.978,610.178,439.763,610.178,439.763,610.178C439.763,610.178,439.763,674.13,439.763,674.13C439.763,719.11,461.081,789.884,555.73,789.884C555.73,789.884,641,789.884,641,789.884C641,789.884,640.787,694.168,640.787,694.168" class="icon-auth-fb"/><glyph unicode="&#x0048;" d="M512.882,1023.736C119.043,1023.736,-127.109,597.387,69.8,256.309C266.73,-84.77,759.034,-84.77,955.965,256.309C1000.859,334.075,1024.5,422.308,1024.5,512.118C1024.5,794.68,795.444,1023.736,512.882,1023.736C512.882,1023.736,512.882,1023.736,512.882,1023.736M716.25,322.393C652.298,237.123,532.068,212.608,434.647,245.863C328.465,283.979,257.947,385.023,258.779,497.835C253.663,635.119,371.548,762.171,506.274,763.663C575.022,767.905,642.577,744.222,693.654,698.006C672.336,674.13,651.019,650.468,627.57,628.298C581.737,656.863,526.739,678.394,473.232,659.208C384.722,628.895,337.163,532.902,366.645,444.115C395.146,352.77,495.722,305.382,584.296,341.579C627.165,359.677,658.821,397.132,669.565,442.41C619.682,442.41,569.8,442.41,520.343,444.115C520.343,474.386,520.343,504.657,520.343,534.927C603.694,534.927,686.832,534.927,770.183,534.927C774.234,461.382,763.362,382.082,716.25,322.393C716.25,322.393,716.25,322.393,716.25,322.393" class="icon-auth-google"/><glyph unicode="&#x0049;" d="M512.882,1023.736C119.043,1023.736,-127.109,597.387,69.8,256.309C266.73,-84.77,759.034,-84.77,955.965,256.309C1000.859,334.075,1024.5,422.308,1024.5,512.118C1024.5,794.68,795.444,1023.736,512.882,1023.736C512.882,1023.736,512.882,1023.736,512.882,1023.736M726.056,329.001C684.978,298.176,625.928,323.373,619.768,374.365C619.64,375.367,619.555,376.39,619.469,377.392C619.469,377.392,619.469,393.38,619.469,393.38C589.092,363.066,547.907,346.034,504.995,346.055C416.186,348.294,344.688,419.686,342.343,508.494C344.347,597.729,415.781,669.824,504.995,672.638C504.995,672.638,504.995,672.638,504.995,672.638C548.482,671.977,589.945,654.113,620.322,622.968C620.322,622.968,620.322,622.968,620.322,622.968C619.299,635.524,628.295,646.673,640.787,648.336C640.787,648.336,644.197,648.336,644.197,648.336C658.672,648.102,670.226,636.164,669.992,621.689C669.992,621.689,669.992,396.151,669.992,396.151C668.307,384.959,679.371,376.134,689.923,380.27C691.607,380.93,693.164,381.911,694.507,383.147C730.959,420.453,774.447,575.004,671.91,664.111C590.52,734.757,472.55,744.009,381.141,686.921C297.917,627.083,267.263,517.554,307.382,423.224C356.412,310.242,496.894,276.56,580.245,310.242C622.88,327.083,642.066,270.165,598.152,251.619C531.855,223.267,347.246,226.251,261.124,375.26C187.536,504.827,231.812,669.483,360.463,744.691C479.435,815.017,630.981,795.597,728.401,697.579C826.674,595.043,820.919,403.399,726.056,329.001C726.056,329.001,726.056,329.001,726.056,329.001M504.782,615.934C504.782,615.934,502.65,615.934,502.65,615.934C436.992,615.934,400.539,564.559,400.539,506.149C396.51,447.547,443.707,398.176,502.437,399.562C560.91,397.878,609.812,443.646,612.008,502.099C612.008,502.099,612.008,514.889,612.008,514.889C610.857,572.659,562.509,618.215,504.782,615.934C504.782,615.934,504.782,615.934,504.782,615.934" class="icon-auth-mail"/><glyph unicode="&#x004a;" d="M512.882,1023.736C119.043,1023.736,-127.109,597.387,69.8,256.309C266.73,-84.77,759.034,-84.77,955.965,256.309C1000.859,334.075,1024.5,422.308,1024.5,512.118C1024.5,794.68,795.444,1023.736,512.882,1023.736C512.882,1023.736,512.882,1023.736,512.882,1023.736M744.389,342.858C744.389,342.858,673.189,342.858,673.189,342.858C660.484,341.856,647.843,345.65,637.802,353.516C611.155,371.423,586.001,417.469,566.389,411.926C546.777,406.383,547.203,363.749,547.203,363.749C547.31,358.867,545.818,354.071,542.94,350.105C538.804,346.673,533.773,344.52,528.444,343.923C528.444,343.923,496.468,343.923,496.468,343.923C446.137,344.286,398.152,365.241,363.66,401.907C296.084,470.975,235.756,607.833,235.756,607.833C235.756,607.833,232.345,616.786,235.756,621.05C240.318,624.439,245.839,626.294,251.531,626.379C251.531,626.379,327.634,626.379,327.634,626.379C331.983,625.633,336.14,623.97,339.785,621.476C342.663,619.152,344.944,616.147,346.393,612.736C355.283,592.762,365.451,573.384,376.877,554.753C408.64,500.82,423.349,489.095,434.221,494.851C449.996,503.164,445.306,571.167,445.306,571.167C445.583,583.488,442.876,595.703,437.419,606.767C431.3,613.567,422.859,617.81,413.756,618.705C409.493,618.705,416.314,629.15,425.481,633.414C446.905,639.766,469.309,642.005,491.565,640.022C504.185,640.427,516.783,639.212,529.083,636.398C555.304,630.003,546.351,606.128,546.351,548.357C546.351,530.024,542.94,504.017,556.583,495.49C562.339,491.653,576.621,495.49,612.221,554.326C623.711,573.981,633.603,594.51,641.853,615.72C643.494,619.089,645.988,621.945,649.1,624.034C652.255,625.612,655.815,626.273,659.333,625.953C659.333,625.953,739.486,625.953,739.486,625.953C739.486,625.953,763.575,628.724,767.412,618.065C771.249,607.407,758.459,580.76,724.777,537.912C671.057,467.564,665.089,473.96,709.642,433.457C730.597,416.552,748.546,396.236,762.722,373.341C781.482,344.989,744.389,342.858,744.389,342.858C744.389,342.858,744.389,342.858,744.389,342.858" class="icon-auth-vk"/><glyph unicode="&#x004b;" d="M918.673,91.909C918.673,91.909,918.673,627.671,918.673,627.671C918.673,627.671,114.806,627.671,114.806,627.671C114.806,627.671,114.806,89.667,114.806,89.667C114.806,89.667,57.867,89.667,57.867,89.667C57.867,89.667,28.277,0,28.277,0C28.277,0,1002.063,0,1002.063,0C1002.063,0,963.058,89.667,963.058,89.667C963.058,89.667,918.673,91.909,918.673,91.909M219.716,91.909C219.716,91.909,219.716,444.75,219.716,444.75C219.716,489.269,267.912,517.111,306.469,494.829C324.358,484.517,335.387,465.418,335.387,444.75C335.387,444.75,335.387,91.909,335.387,91.909C335.387,91.909,219.716,91.909,219.716,91.909M457.335,91.909C457.335,91.909,457.335,444.75,457.335,444.75C457.335,489.269,505.531,517.111,544.088,494.829C561.976,484.517,573.005,465.418,573.005,444.75C573.005,444.75,573.005,91.909,573.005,91.909C573.005,91.909,457.335,91.909,457.335,91.909M694.953,91.909C694.953,91.909,694.953,444.75,694.953,444.75C694.953,489.269,743.149,517.111,781.706,494.829C799.594,484.517,810.623,465.418,810.623,444.75C810.623,444.75,810.623,91.909,810.623,91.909C810.623,91.909,694.953,91.909,694.953,91.909M1002.063,729.891C1002.063,729.891,938.848,785.485,938.848,785.485C937.951,793.779,933.333,801.222,926.294,805.66C926.294,805.66,527.275,1021.31,527.275,1021.31C519.429,1024.897,510.462,1024.897,502.616,1021.31C502.616,1021.31,104.046,805.66,104.046,805.66C97.007,801.222,92.389,793.779,91.492,785.485C91.492,785.485,22,729.443,22,729.443C22,729.443,22,676.988,22,676.988C22,676.988,1002.063,676.988,1002.063,676.988C1002.063,676.988,1002.063,729.891,1002.063,729.891M515.17,744.687C472.264,744.193,436.98,778.446,436.263,821.352C434.559,882.057,499.209,921.869,552.651,893.041C606.092,864.168,608.244,788.265,556.506,756.388C544.088,748.766,529.786,744.687,515.17,744.687C515.17,744.687,515.17,744.687,515.17,744.687" class="icon-bank"/><glyph unicode="&#x004c;" d="M0,750.933C0,750.933,1024,750.933,1024,750.933C1024,750.933,1024,136.533,1024,136.533C1024,61.099,962.901,0,887.467,0C887.467,0,136.533,0,136.533,0C61.099,0,0,61.099,0,136.533C0,136.533,0,750.933,0,750.933M546.133,409.6C546.133,409.6,682.667,409.6,682.667,409.6C682.667,409.6,682.667,477.867,682.667,477.867C682.667,477.867,341.333,477.867,341.333,477.867C341.333,477.867,341.333,409.6,341.333,409.6C341.333,409.6,477.867,409.6,477.867,409.6C477.867,409.6,477.867,136.533,477.867,136.533C477.867,136.533,546.133,136.533,546.133,136.533C546.133,136.533,546.133,409.6,546.133,409.6M341.333,614.4C341.333,614.4,341.333,546.133,341.333,546.133C341.333,546.133,682.667,546.133,682.667,546.133C682.667,546.133,682.667,614.4,682.667,614.4C682.667,614.4,341.333,614.4,341.333,614.4M204.8,955.733C204.8,955.733,273.067,955.733,273.067,955.733C273.067,955.733,273.067,1024,273.067,1024C273.067,1024,341.333,1024,341.333,1024C341.333,1024,341.333,955.733,341.333,955.733C341.333,955.733,409.6,955.733,409.6,955.733C409.6,955.733,409.6,1024,409.6,1024C409.6,1024,477.867,1024,477.867,1024C477.867,1024,477.867,955.733,477.867,955.733C477.867,955.733,546.133,955.733,546.133,955.733C546.133,955.733,546.133,1024,546.133,1024C546.133,1024,614.4,1024,614.4,1024C614.4,1024,614.4,955.733,614.4,955.733C614.4,955.733,682.667,955.733,682.667,955.733C682.667,955.733,682.667,1024,682.667,1024C682.667,1024,750.933,1024,750.933,1024C750.933,1024,750.933,955.733,750.933,955.733C750.933,955.733,819.2,955.733,819.2,955.733C819.2,955.733,819.2,1024,819.2,1024C819.2,1024,887.467,1024,887.467,1024C887.467,1024,887.467,955.733,887.467,955.733C962.901,955.733,1024,894.635,1024,819.2C1024,819.2,0,819.2,0,819.2C0,894.635,61.099,955.733,136.533,955.733C136.533,955.733,136.533,1024,136.533,1024C136.533,1024,204.8,1024,204.8,1024C204.8,1024,204.8,955.733,204.8,955.733M819.2,955.733C819.2,955.733,819.2,887.467,819.2,887.467C819.2,887.467,887.467,887.467,887.467,887.467C887.467,887.467,887.467,955.733,887.467,955.733C887.467,955.733,819.2,955.733,819.2,955.733M750.933,955.733C750.933,955.733,682.667,955.733,682.667,955.733C682.667,955.733,682.667,887.467,682.667,887.467C682.667,887.467,750.933,887.467,750.933,887.467C750.933,887.467,750.933,955.733,750.933,955.733M546.133,955.733C546.133,955.733,546.133,887.467,546.133,887.467C546.133,887.467,614.4,887.467,614.4,887.467C614.4,887.467,614.4,955.733,614.4,955.733C614.4,955.733,546.133,955.733,546.133,955.733M477.867,955.733C477.867,955.733,409.6,955.733,409.6,955.733C409.6,955.733,409.6,887.467,409.6,887.467C409.6,887.467,477.867,887.467,477.867,887.467C477.867,887.467,477.867,955.733,477.867,955.733M273.067,955.733C273.067,955.733,273.067,887.467,273.067,887.467C273.067,887.467,341.333,887.467,341.333,887.467C341.333,887.467,341.333,955.733,341.333,955.733C341.333,955.733,273.067,955.733,273.067,955.733M204.8,955.733C204.8,955.733,136.533,955.733,136.533,955.733C136.533,955.733,136.533,887.467,136.533,887.467C136.533,887.467,204.8,887.467,204.8,887.467C204.8,887.467,204.8,955.733,204.8,955.733" class="icon-calendar"/><glyph unicode="&#x004d;" d="M508.704,286.493C524.045,276.692,540.238,270.3,556.857,261.351C563.632,256.749,572.794,258.24,577.737,264.76C601.601,289.902,626.742,314.191,651.032,338.481C678.858,370.355,728.46,370.355,756.286,338.481C756.286,338.481,874.325,219.59,874.325,219.59C907.265,191.21,907.265,140.159,874.325,111.779C852.592,88.768,828.303,69.166,807.848,43.598C778.999,11.638,736.386,-4.257,693.645,0.985C630.237,6.226,568.533,24.038,512.113,53.399C386.49,114.08,275.568,201.309,186.975,309.078C118.283,388.125,64.42,478.934,28.028,577.114C8.128,623.648,-1.205,673.974,0.756,724.556C2.375,755.578,15.969,784.768,38.681,805.947C63.823,830.236,88.113,855.378,112.402,879.667C140.101,911.499,189.532,911.499,217.23,879.667C217.23,879.667,276.463,820.009,276.463,820.009C276.463,820.009,334.416,762.055,334.416,762.055C368.635,734.271,368.635,682.028,334.416,654.244C334.416,654.244,262.4,581.375,262.4,581.375C256.264,576.773,254.773,568.165,258.991,561.773C275.525,523.507,297.641,487.882,324.615,456.093C375.964,389.318,438.222,331.705,508.704,285.64C508.704,285.64,508.704,286.493,508.704,286.493M469.5,995.149C460.679,975.76,464.557,952.962,479.301,937.621C490.764,926.712,506.062,920.746,521.914,921.002C667.31,917.806,799.667,836.33,867.933,707.936C901.128,649.642,918.472,583.677,918.216,516.604C917.492,486.647,943.401,462.954,973.187,466.32C1002.633,464.275,1026.752,489.416,1023.471,518.734C1019.635,656.843,961.809,787.964,862.393,883.929C847.052,895.86,819.78,919.298,792.508,938.047C711.244,992.805,615.663,1022.464,517.653,1023.274C496.858,1027.151,476.318,1015.177,469.5,995.149C469.5,995.149,469.5,995.149,469.5,995.149M460.551,767.169C465.835,744.584,486.375,728.86,509.556,729.669C630.791,730.607,729.653,632.724,729.866,511.49C730.165,499.686,734,488.223,740.946,478.678C755.306,460.738,779.809,454.474,801.03,463.337C820.973,470.581,833.587,490.354,831.712,511.49C831.456,596.887,797.621,678.789,737.537,739.47C677.537,798.873,596.53,832.282,512.113,832.367C502.781,832.026,493.576,830.151,484.841,826.827C464.386,814.555,454.5,790.222,460.551,767.169C460.551,767.169,460.551,767.169,460.551,767.169" class="icon-call"/><glyph unicode="&#x004e;" d="M137.168,529.555C92.802,573.033,17.945,552.141,2.538,491.965C-4.642,463.974,3.667,434.37,24.237,414.204C24.237,414.204,346.897,102.837,346.897,102.837C378.437,71.054,429.901,71.054,461.441,102.837C463.7,104.934,465.636,107.354,467.088,110.096C467.088,110.096,1007.544,815.916,1007.544,815.916C1034.486,851.328,1027.63,901.905,992.218,928.847C956.967,955.951,906.471,949.417,879.287,914.328C879.287,914.328,879.287,914.328,879.287,914.328C879.287,914.328,395.296,280.3,395.296,280.3C395.296,280.3,137.168,529.555,137.168,529.555C137.168,529.555,137.168,529.555,137.168,529.555" class="icon-check"/><glyph unicode="&#x004f;" d="M512.876,0.5C119.028,0.5,-127.114,426.836,69.81,767.936C266.734,1109.036,759.018,1109.036,955.942,767.936C1000.863,690.169,1024.5,601.914,1024.5,512.124C1024.5,229.554,795.446,0.5,512.876,0.5C512.876,0.5,512.876,0.5,512.876,0.5M512.876,921.423C197.818,921.423,0.894,580.323,158.423,307.474C315.952,34.625,709.8,34.625,867.329,307.474C903.245,369.688,922.175,440.292,922.175,512.124C922.175,738.159,738.912,921.423,512.876,921.423C512.876,921.423,512.876,921.423,512.876,921.423M274.459,515.705C274.459,529.008,337.901,451.241,465.807,282.405C465.807,282.405,764.083,648.728,764.083,648.728C764.083,648.728,717.526,693.75,717.526,693.75C717.526,693.75,465.807,460.962,465.807,460.962C465.807,460.962,336.366,557.147,336.366,557.147C294.924,516.217,274.459,502.403,274.459,515.705C274.459,515.705,274.459,515.705,274.459,515.705" class="icon-check-circle"/><glyph unicode="&#x0050;" d="M335.212,921.556C333.847,915.958,333.847,910.088,335.212,904.49C335.212,904.49,337.602,893.909,337.602,893.909C342.619,870.188,363.542,853.258,387.775,853.292C387.775,853.292,633.182,853.292,633.182,853.292C656.46,853.292,676.768,869.027,682.673,891.52C682.673,891.52,686.086,904.49,686.086,904.49C687.281,910.122,687.281,915.924,686.086,921.556C686.086,921.556,802.134,921.556,802.134,921.556C858.69,921.556,904.529,875.717,904.529,819.161C904.529,819.161,904.529,102.395,904.529,102.395C904.529,45.839,858.69,0,802.134,0C802.134,0,221.895,0,221.895,0C165.339,0,119.5,45.839,119.5,102.395C119.5,102.395,119.5,819.161,119.5,819.161C119.5,875.717,165.339,921.556,221.895,921.556C221.895,921.556,335.212,921.556,335.212,921.556M256.027,716.766C256.027,716.766,802.134,716.766,802.134,716.766C802.134,716.766,802.134,648.502,802.134,648.502C802.134,648.502,256.027,648.502,256.027,648.502C256.027,648.502,256.027,716.766,256.027,716.766M256.027,511.975C256.027,511.975,631.475,511.975,631.475,511.975C631.475,511.975,631.475,477.844,631.475,477.844C631.475,477.844,256.027,477.844,256.027,477.844C256.027,477.844,256.027,511.975,256.027,511.975M256.027,204.79C256.027,204.79,733.871,204.79,733.871,204.79C733.871,204.79,733.871,170.658,733.871,170.658C733.871,170.658,256.027,170.658,256.027,170.658C256.027,170.658,256.027,204.79,256.027,204.79M256.027,409.58C256.027,409.58,802.134,409.58,802.134,409.58C802.134,409.58,802.134,375.449,802.134,375.449C802.134,375.449,256.027,375.449,256.027,375.449C256.027,375.449,256.027,409.58,256.027,409.58M256.027,307.185C256.027,307.185,494.949,307.185,494.949,307.185C494.949,307.185,494.949,273.054,494.949,273.054C494.949,273.054,256.027,273.054,256.027,273.054C256.027,273.054,256.027,307.185,256.027,307.185M631.475,980.262C630.383,1005.52,608.949,1025.111,583.691,1023.951C583.691,1023.951,440.338,1023.951,440.338,1023.951C415.081,1025.111,393.646,1005.52,392.554,980.262C392.554,980.262,392.554,887.424,392.554,887.424C392.554,887.424,631.475,887.424,631.475,887.424C631.475,887.424,631.475,980.262,631.475,980.262" class="icon-contract"/><glyph unicode="&#x0051;" d="M511.886,556.911C511.886,556.911,376.318,692.799,376.318,692.799C358.829,710.288,328.997,702.263,322.603,678.41C319.629,667.316,322.794,655.517,330.916,647.396C330.916,647.396,466.803,511.828,466.803,511.828C466.803,511.828,330.916,376.261,330.916,376.261C313.426,358.771,321.452,328.94,345.304,322.545C356.399,319.572,368.197,322.737,376.318,330.858C376.318,330.858,511.886,466.746,511.886,466.746C511.886,466.746,647.453,330.858,647.453,330.858C664.943,313.369,694.774,321.394,701.169,345.246C704.143,356.341,700.977,368.139,692.856,376.261C692.856,376.261,556.968,511.828,556.968,511.828C556.968,511.828,692.856,647.396,692.856,647.396C710.345,664.886,702.32,694.717,678.468,701.112C667.373,704.085,655.575,700.92,647.453,692.799C647.453,692.799,511.886,556.911,511.886,556.911M150.265,150.208C-128.288,428.569,-1.033,904.111,379.324,1006.172C759.681,1108.231,1107.872,760.263,1006.068,379.81C982.824,292.97,937.102,213.771,873.506,150.208C673.736,-49.403,350.036,-49.403,150.265,150.208C150.265,150.208,150.265,150.208,150.265,150.208" class="icon-cross"/><glyph unicode="&#x0052;" d="M512.38,1023.741C118.534,1023.741,-127.623,597.39,69.316,256.31C266.222,-84.77,758.537,-84.77,955.443,256.31C1000.363,334.076,1024,422.314,1024,512.12C1024,794.671,794.931,1023.741,512.38,1023.741C512.38,1023.741,512.38,1023.741,512.38,1023.741M772.283,294.511C772.283,294.511,729.989,252.217,729.989,252.217C729.989,252.217,512.38,469.826,512.38,469.826C512.38,469.826,294.77,252.217,294.77,252.217C294.77,252.217,252.476,294.511,252.476,294.511C252.476,294.511,470.086,512.12,470.086,512.12C470.086,512.12,252.476,729.73,252.476,729.73C252.476,729.73,294.77,772.024,294.77,772.024C294.77,772.024,512.38,554.414,512.38,554.414C512.38,554.414,729.989,772.024,729.989,772.024C729.989,772.024,772.283,729.73,772.283,729.73C772.283,729.73,554.674,512.12,554.674,512.12C554.674,512.12,772.283,294.511,772.283,294.511" class="icon-cross-close"/><glyph unicode="&#x0053;" d="M888.484,4.5C888.484,4.5,512.449,380.535,512.449,380.535C512.449,380.535,136.414,4.5,136.414,4.5C136.414,4.5,8.975,131.042,8.975,131.042C8.975,131.042,385.01,507.077,385.01,507.077C385.01,507.077,0,892.984,0,892.984C0,892.984,126.542,1019.525,126.542,1019.525C126.542,1019.525,512.449,634.516,512.449,634.516C512.449,634.516,897.458,1019.525,897.458,1019.525C897.458,1019.525,1024,892.984,1024,892.984C1024,892.984,638.99,507.077,638.99,507.077C638.99,507.077,1015.025,131.042,1015.025,131.042C1015.025,131.042,888.484,4.5,888.484,4.5C888.484,4.5,888.484,4.5,888.484,4.5" class="icon-cross-small"/><glyph unicode="&#x0054;" d="M891.729,425.731C894.837,481.143,836.812,519.12,787.302,494.117C774.282,487.585,763.605,477.223,756.578,464.474C756.578,464.474,756.578,464.474,756.578,464.474C756.578,504.434,724.457,536.96,684.497,537.456C659.629,537.005,636.653,524.166,623.228,503.218C623.228,503.218,623.228,503.218,623.228,503.218C623.228,543.177,591.107,575.704,551.148,576.199C527.406,576.199,505.106,564.801,491.231,545.565C491.231,545.565,491.231,744.237,491.231,744.237C491.006,763.474,483.617,781.944,470.508,796.045C456.632,809.921,437.891,817.849,418.249,818.12C378.47,817.624,346.394,785.368,346.169,745.589C346.169,745.589,346.169,356.804,346.169,356.804C346.439,352.839,344.276,349.145,340.763,347.343C337.429,345.316,333.284,345.316,329.95,347.343C329.95,347.343,256.068,423.929,256.068,423.929C231.11,448.346,192.637,452.266,163.264,433.389C127.314,408.882,120.241,358.786,147.947,325.269C147.947,325.269,331.302,100.017,331.302,100.017C382.614,36.721,459.741,0.005,541.237,0.005C541.237,0.005,655.214,0.005,655.214,0.005C718.555,-0.401,779.283,25.188,823.252,70.734C868.122,116.009,893.26,177.278,893.08,241.024C893.08,241.024,891.729,425.731,891.729,425.731M418.249,877.136C433.566,877.361,445.955,889.75,446.18,905.067C446.18,905.067,446.18,995.168,446.18,995.168C446.451,1010.845,433.927,1023.775,418.249,1024C402.842,1023.504,390.543,1011.025,390.318,995.618C390.318,995.618,390.318,905.517,390.318,905.517C390.543,890.11,402.842,877.631,418.249,877.136C418.249,877.136,418.249,877.136,418.249,877.136M287.153,838.392C292.243,832.941,299.496,829.968,306.975,830.283C314.453,830.013,321.661,832.986,326.797,838.392C337.158,849.745,337.158,867.135,326.797,878.487C326.797,878.487,262.825,942.909,262.825,942.909C251.788,953.676,234.218,953.676,223.181,942.909C212.819,931.557,212.819,914.167,223.181,902.814C223.181,902.814,287.153,838.392,287.153,838.392C287.153,838.392,287.153,838.392,287.153,838.392M530.875,830.283C538.353,829.968,545.607,832.941,550.697,838.392C550.697,838.392,614.218,902.814,614.218,902.814C629.671,917.906,622.958,944.036,602.19,949.847C592.549,952.55,582.188,949.892,575.025,942.909C575.025,942.909,511.053,878.487,511.053,878.487C500.691,867.135,500.691,849.745,511.053,838.392C516.189,832.986,523.397,830.013,530.875,830.283C530.875,830.283,530.875,830.283,530.875,830.283" class="icon-cursor"/><glyph unicode="&#x0055;" d="M3.2,801.28C7.296,883.136,69.696,950.144,151.04,960C151.04,960,872.96,960,872.96,960C957.632,950.72,1022.272,880.064,1024,794.88C1024,794.88,512,531.84,512,531.84C512,531.84,3.2,801.28,3.2,801.28M525.44,435.2C517.12,430.4,506.88,430.4,498.56,435.2C498.56,435.2,0,699.52,0,699.52C0,699.52,0,262.4,0,262.4C0,152.96,67.84,64,151.04,64C151.04,64,872.96,64,872.96,64C956.16,64,1024,152.96,1024,262.4C1024,262.4,1024,693.12,1024,693.12C1024,693.12,525.44,435.2,525.44,435.2" class="icon-envelope"/><glyph unicode="&#x0056;" d="M0,192C0,192,0,832,0,832C0,938.048,85.952,1024,192,1024C192,1024,832,1024,832,1024C938.048,1024,1024,938.048,1024,832C1024,832,1024,192,1024,192C1024,85.952,938.048,0,832,0C832,0,192,0,192,0C85.952,0,0,85.952,0,192C0,192,0,192,0,192M620.8,256C620.8,256,503.68,407.68,503.68,407.68C503.68,407.68,384,256,384,256C384,256,208.64,256,208.64,256C208.64,256,422.4,512,422.4,512C422.4,512,249.6,768,249.6,768C249.6,768,423.68,768,423.68,768C423.68,768,504.32,620.8,504.32,620.8C504.32,620.8,590.72,768,590.72,768C590.72,768,768,768,768,768C768,768,586.88,512,586.88,512C586.88,512,792.32,256,792.32,256C792.32,256,620.8,256,620.8,256" class="icon-excel"/><glyph unicode="&#x0057;" d="M614.4,1024C614.4,1024,1024,1024,1024,1024C1024,1024,1024,614.4,1024,614.4C1024,614.4,866.304,772.096,866.304,772.096C866.304,772.096,639.659,546.133,639.659,546.133C639.659,546.133,546.133,639.659,546.133,639.659C546.133,639.659,772.096,866.304,772.096,866.304C772.096,866.304,614.4,1024,614.4,1024M157.696,251.904C157.696,251.904,384.341,477.867,384.341,477.867C384.341,477.867,477.867,384.341,477.867,384.341C477.867,384.341,251.904,157.696,251.904,157.696C251.904,157.696,409.6,0,409.6,0C409.6,0,0,0,0,0C0,0,0,409.6,0,409.6C0,409.6,157.696,251.904,157.696,251.904" class="icon-expand-image"/><glyph unicode="&#x0058;" d="M138.269,78.769C138.269,78.769,217.038,78.769,217.038,78.769C247.365,78.769,266.309,45.962,251.146,19.692C244.096,7.522,231.099,0,217.038,0C217.038,0,98.885,0,98.885,0C98.885,0,98.885,10.634,98.885,10.634C74.545,24.694,59.539,50.649,59.5,78.769C59.5,78.769,59.5,157.538,59.5,157.538C59.5,187.865,92.307,206.809,118.577,191.646C130.747,184.596,138.269,171.599,138.269,157.538C138.269,157.538,138.269,78.769,138.269,78.769M886.577,78.769C886.577,78.769,807.808,78.769,807.808,78.769C777.482,78.769,758.538,45.962,773.701,19.692C780.75,7.522,793.747,0,807.808,0C807.808,0,925.962,0,925.962,0C925.962,0,925.962,10.634,925.962,10.634C950.301,24.694,965.307,50.649,965.346,78.769C965.346,78.769,965.346,157.538,965.346,157.538C965.346,187.865,932.539,206.809,906.269,191.646C894.099,184.596,886.577,171.599,886.577,157.538C886.577,157.538,886.577,78.769,886.577,78.769M138.269,945.231C138.269,945.231,217.038,945.231,217.038,945.231C247.365,945.231,266.309,978.038,251.146,1004.308C244.096,1016.478,231.099,1024,217.038,1024C217.038,1024,98.885,1024,98.885,1024C98.885,1024,98.885,1013.366,98.885,1013.366C74.545,999.306,59.539,973.351,59.5,945.231C59.5,945.231,59.5,866.462,59.5,866.462C59.5,836.135,92.307,817.191,118.577,832.354C130.747,839.404,138.269,852.401,138.269,866.462C138.269,866.462,138.269,945.231,138.269,945.231M886.577,945.231C886.577,945.231,807.808,945.231,807.808,945.231C777.482,945.231,758.538,978.038,773.701,1004.308C780.75,1016.478,793.747,1024,807.808,1024C807.808,1024,925.962,1024,925.962,1024C925.962,1024,925.962,1013.366,925.962,1013.366C950.301,999.306,965.307,973.351,965.346,945.231C965.346,945.231,965.346,866.462,965.346,866.462C965.346,836.135,932.539,817.191,906.269,832.354C894.099,839.404,886.577,852.401,886.577,866.462C886.577,866.462,886.577,945.231,886.577,945.231M489.58,866.462C489.58,866.462,535.266,866.462,535.266,866.462C595.328,869.612,655.153,857.127,708.952,830.228C752.433,807.227,787.958,771.702,810.958,728.222C837.858,674.422,850.343,614.597,847.192,554.535C847.192,554.535,847.192,492.308,847.192,492.308C847.192,234.614,568.231,73.531,345.038,202.398C241.457,262.183,177.654,372.697,177.654,492.308C177.654,492.308,177.654,554.535,177.654,554.535C174.503,614.597,186.988,674.422,213.888,728.222C236.888,771.702,272.413,807.227,315.894,830.228C369.693,857.127,429.518,869.612,489.58,866.462C489.58,866.462,489.58,866.462,489.58,866.462M363.155,564.382C400.138,565.602,421.917,606.366,402.382,637.794C382.848,669.184,336.65,667.687,319.202,635.038C315.5,628.106,313.531,620.308,313.531,612.431C313.728,585.374,336.098,563.712,363.155,564.382C363.155,564.382,363.155,564.382,363.155,564.382M661.691,564.382C698.634,566.508,719.389,607.823,699.106,638.74C678.784,669.657,632.625,666.978,616.005,633.935C612.657,627.279,610.885,619.914,610.885,612.431C611.082,584.862,634.161,563.042,661.691,564.382C661.691,564.382,661.691,564.382,661.691,564.382M337.555,390.302C382.493,337.093,449.093,307.121,518.725,308.775C587.845,306.452,653.932,337.172,696.743,391.483C713.521,416.729,696.664,450.678,666.417,452.608C654.759,453.317,643.338,448.827,635.303,440.32C606.986,404.322,562.875,384.473,517.149,387.151C470.518,385.694,425.816,405.74,395.845,441.502C376.152,464.542,338.894,457.61,328.773,429.017C324.086,415.744,326.843,401.014,335.98,390.302C335.98,390.302,337.555,390.302,337.555,390.302" class="icon-face"/><glyph unicode="&#x0059;" d="M794.283,1024C794.283,1024,229.717,1024,229.717,1024C102.912,1023.795,0.205,921.088,0,794.283C0,794.283,0,229.717,0,229.717C0.205,102.912,102.912,0.205,229.717,0C229.717,0,794.283,0,794.283,0C921.156,0,1024,102.844,1024,229.717C1024,229.717,1024,794.283,1024,794.283C1023.795,921.088,921.088,1023.795,794.283,1024C794.283,1024,794.283,1024,794.283,1024M657.749,694.955C657.749,694.955,648.533,694.955,648.533,694.955C631.467,694.955,614.4,694.955,596.992,694.955C596.992,694.955,596.992,694.955,596.992,694.955C573.781,694.955,556.032,685.056,555.349,655.701C555.349,634.197,555.349,584.704,555.349,584.704C555.349,584.704,653.995,584.704,653.995,584.704C649.557,550.571,645.461,516.437,641.024,484.693C641.024,484.693,556.032,484.693,556.032,484.693C556.032,484.693,556.032,234.155,556.032,234.155C556.032,234.155,453.632,234.155,453.632,234.155C453.632,234.155,453.632,484.352,453.632,484.352C453.632,484.352,367.275,484.352,367.275,484.352C367.275,484.352,367.275,584.363,367.275,584.363C367.275,584.363,452.608,584.363,452.608,584.363C452.608,584.363,452.608,591.872,452.608,591.872C452.608,612.011,452.608,632.149,452.608,651.947C452.881,664.849,454.007,677.751,456.021,690.517C460.117,720.384,476.297,747.281,500.736,764.928C522.547,780.151,548.557,788.275,575.147,788.139C593.237,788.139,609.28,788.139,628.395,788.139C637.952,788.139,647.509,788.139,656.725,785.749C656.725,785.749,657.749,694.955,657.749,694.955" class="icon-facebook"/><glyph unicode="&#x005a;" d="M800.888,236.565C800.888,183.317,757.76,140.188,704.512,140.188C704.512,140.188,319.006,140.188,319.006,140.188C265.758,140.188,222.63,183.317,222.63,236.565C222.63,236.565,222.63,463.531,222.63,463.531C222.63,463.531,174.441,425.944,174.441,425.944C174.441,425.944,174.441,236.565,174.441,236.565C174.441,156.717,239.158,92,319.006,92C319.006,92,704.512,92,704.512,92C784.36,92,849.077,156.717,849.077,236.565C849.077,236.565,849.077,425.944,849.077,425.944C849.077,425.944,800.888,463.531,800.888,463.531C800.888,463.531,800.888,236.565,800.888,236.565M1024,534.368C1024,534.368,511.759,932.403,511.759,932.403C511.759,932.403,0,534.368,0,534.368C0,534.368,118.543,382.093,118.543,382.093C118.543,382.093,174.441,425.944,174.441,425.944C174.441,425.944,222.63,463.531,222.63,463.531C222.63,463.531,488.629,670.259,488.629,670.259C488.629,670.259,511.759,688.088,511.759,688.088C511.759,688.088,535.371,670.259,535.371,670.259C535.371,670.259,800.888,463.531,800.888,463.531C800.888,463.531,849.077,425.944,849.077,425.944C849.077,425.944,905.457,382.093,905.457,382.093C905.457,382.093,1024,534.368,1024,534.368M849.077,486.18C849.077,486.18,800.888,523.285,800.888,523.285C800.888,523.285,613.436,667.849,613.436,667.849C613.436,667.849,551.755,716.038,551.755,716.038C551.755,716.038,511.759,746.878,511.759,746.878C511.759,746.878,472.245,716.038,472.245,716.038C472.245,716.038,410.082,667.849,410.082,667.849C410.082,667.849,222.63,523.285,222.63,523.285C222.63,523.285,174.441,486.18,174.441,486.18C174.441,486.18,126.253,448.593,126.253,448.593C126.253,448.593,67.464,525.694,67.464,525.694C67.464,525.694,180.706,613.879,180.706,613.879C180.706,613.879,314.669,717.965,314.669,717.965C314.669,717.965,511.759,871.204,511.759,871.204C511.759,871.204,709.331,717.965,709.331,717.965C709.331,717.965,842.812,613.879,842.812,613.879C842.812,613.879,956.055,525.694,956.055,525.694C956.055,525.694,896.783,450.52,896.783,450.52C896.783,450.52,849.077,486.18,849.077,486.18" class="icon-home"/><glyph unicode="&#x0061;" d="M1024,187.717C1024,187.717,1024,213.553,1024,213.553C1023.957,218.85,1022.105,224.017,1018.833,228.194C1018.833,228.194,973.618,283.743,973.618,283.743C965.867,293.217,943.045,303.552,943.045,315.178C943.045,315.178,943.045,809.093,943.045,809.093C943.045,858.183,921.944,897.799,871.993,897.799C871.993,897.799,152.007,897.799,152.007,897.799C102.486,897.799,79.664,858.183,79.664,809.093C79.664,809.093,79.664,315.178,79.664,315.178C79.664,303.552,58.133,291.925,50.812,283.743C50.812,283.743,5.167,228.194,5.167,228.194C1.895,224.017,0.043,218.85,0,213.553C0,213.553,0,187.717,0,187.717C0.215,154.129,27.559,127,61.147,127C61.147,127,965.437,127,965.437,127C998.12,128.163,1024,154.99,1024,187.717C1024,187.717,1024,187.717,1024,187.717M215.307,424.124C215.307,424.124,602.86,424.124,602.86,424.124C602.86,424.124,602.86,381.062,602.86,381.062C602.86,381.062,215.307,381.062,215.307,381.062C215.307,381.062,215.307,424.124,215.307,424.124M608.458,208.817C608.458,192.023,594.678,167.908,577.884,167.908C577.884,167.908,446.116,167.908,446.116,167.908C429.322,167.908,415.542,192.023,415.542,208.817C415.542,208.817,415.542,214.845,415.542,214.845C415.542,214.845,609.749,214.845,609.749,214.845C609.749,214.845,609.749,208.817,609.749,208.817C609.749,208.817,608.458,208.817,608.458,208.817M899.122,411.636C899.122,411.636,899.122,294.939,899.122,294.939C899.122,294.939,124.017,294.939,124.017,294.939C124.017,294.939,124.017,854.738,124.017,854.738C124.017,854.738,899.122,854.738,899.122,854.738C899.122,854.738,899.122,411.205,899.122,411.205C899.122,411.205,899.122,411.636,899.122,411.636M218.321,768.615C218.321,768.615,810.846,768.615,810.846,768.615C810.846,768.615,810.846,639.431,810.846,639.431C810.846,639.431,218.321,639.431,218.321,639.431C218.321,639.431,218.321,768.615,218.321,768.615C218.321,768.615,218.321,768.615,218.321,768.615M639.031,596.369C639.031,596.369,803.526,596.369,803.526,596.369C803.526,596.369,803.526,381.062,803.526,381.062C803.526,381.062,640.754,381.062,640.754,381.062C640.754,381.062,639.031,596.369,639.031,596.369M218.321,596.369C218.321,596.369,595.108,596.369,595.108,596.369C595.108,596.369,595.108,561.059,595.108,561.059C595.108,561.059,218.321,561.059,218.321,561.059C218.321,561.059,218.321,596.369,218.321,596.369C218.321,596.369,218.321,596.369,218.321,596.369M218.321,510.246C218.321,510.246,595.108,510.246,595.108,510.246C595.108,510.246,595.108,472.352,595.108,472.352C595.108,472.352,218.321,472.352,218.321,472.352C218.321,472.352,218.321,510.246,218.321,510.246C218.321,510.246,218.321,510.246,218.321,510.246" class="icon-laptop"/><glyph unicode="&#x0062;" d="M786.121,0.002C786.121,0.002,237.942,0.002,237.942,0.002C173.021,-0.373,120.08,51.85,119.5,116.738C119.5,116.738,119.5,907.262,119.5,907.262C120.08,972.15,173.021,1024.373,237.942,1023.998C237.942,1023.998,786.121,1023.998,786.121,1023.998C851.043,1024.373,903.983,972.15,904.564,907.262C904.564,907.262,904.564,116.738,904.564,116.738C903.983,51.85,851.043,-0.373,786.121,0.002C786.121,0.002,786.121,0.002,786.121,0.002M513.056,443.734C657.576,444.519,747.039,601.463,674.096,726.22C601.154,850.977,420.521,849.987,348.943,724.445C332.798,696.114,324.299,664.063,324.299,631.466C324.299,527.77,408.335,443.734,512.032,443.734C512.032,443.734,513.056,443.734,513.056,443.734M290.166,273.068C290.166,273.068,733.898,273.068,733.898,273.068C733.898,273.068,733.898,238.934,733.898,238.934C733.898,238.934,290.166,238.934,290.166,238.934C290.166,238.934,290.166,273.068,290.166,273.068M358.432,170.668C358.432,170.668,665.631,170.668,665.631,170.668C665.631,170.668,665.631,136.535,665.631,136.535C665.631,136.535,358.432,136.535,358.432,136.535C358.432,136.535,358.432,170.668,358.432,170.668" class="icon-passport"/><glyph unicode="&#x0063;" d="M673.431,461.411C656.481,461.545,640.287,454.427,628.943,441.836C616.53,427.422,610.169,408.782,611.147,389.785C610.258,371.189,616.664,353.037,628.943,339.068C640.51,326.878,656.659,320.116,673.431,320.383C690.203,320.161,706.308,326.923,717.92,339.068C730.51,352.86,737.05,371.144,736.16,389.785C737.228,408.87,730.643,427.6,717.92,441.836C706.531,454.382,690.381,461.5,673.431,461.411C673.431,461.411,673.431,461.411,673.431,461.411M512.383,1023.745C118.527,1023.745,-127.628,597.412,69.323,256.32C266.228,-84.773,758.537,-84.773,955.443,256.32C1000.377,334.085,1024,422.306,1024,512.128C1024,794.674,794.929,1023.745,512.383,1023.745C512.383,1023.745,512.383,1023.745,512.383,1023.745M245.452,674.956C243.673,749.385,304.489,810.201,378.918,808.421C454.281,811.535,516.654,750.364,515.052,674.956C516.876,639.054,503.263,604.086,477.682,578.861C451.389,553.458,415.888,539.978,379.363,541.491C343.016,540.067,307.647,553.591,281.488,578.861C256.041,604.175,242.472,639.098,244.118,674.956C244.118,674.956,245.452,674.956,245.452,674.956M387.37,267.442C387.37,267.442,327.311,267.442,327.311,267.442C327.311,267.442,668.093,801.303,668.093,801.303C668.093,801.303,729.042,801.303,729.042,801.303C729.042,801.303,387.37,267.442,387.37,267.442M771.306,295.469C745.191,270.022,709.867,256.364,673.431,257.654C636.995,256.364,601.671,270.022,575.557,295.469C550.554,320.383,536.852,354.506,537.741,389.785C536.941,425.598,550.554,460.21,575.557,485.88C601.271,511.95,636.817,526.009,673.431,524.585C748.172,526.098,809.566,465.905,809.566,391.12C810.856,355.262,796.976,320.516,771.306,295.469C771.306,295.469,771.306,295.469,771.306,295.469M425.186,623.349C437.242,637.052,443.47,654.936,442.536,673.176C443.515,692.084,437.331,710.68,425.186,725.228C413.752,737.596,397.558,744.58,380.697,744.358C363.836,744.58,347.642,737.596,336.209,725.228C324.063,710.68,317.88,692.084,318.858,673.176C317.168,655.203,322.595,637.319,333.984,623.349C358.72,599.148,398.226,599.148,422.961,623.349C422.961,623.349,425.186,623.349,425.186,623.349" class="icon-percent"/><glyph unicode="&#x0064;" d="M512,0C512,0,128,320,128,640C128,852.096,299.904,1024,512,1024C724.096,1024,896,852.096,896,640C896,329.6,512,0,512,0C512,0,512,0,512,0M539.52,448C634.688,461.76,705.024,543.872,704,640C705.024,736.128,634.688,818.24,539.52,832C424.576,843.52,323.84,755.456,320,640C323.84,524.544,424.576,436.48,539.52,448C539.52,448,539.52,448,539.52,448" class="icon-pin"/><glyph unicode="&#x0065;" d="M128,832C128,832,192,832,192,832C192,832,192,640,192,640C192,640,832,640,832,640C832,640,832,832,832,832C832,832,896,832,896,832C964.672,827.328,1019.328,772.672,1024,704C1024,704,1024,320,1024,320C1019.328,251.328,964.672,196.672,896,192C896,192,832,192,832,192C832,192,832,384,832,384C832,384,192,384,192,384C192,384,192,192,192,192C192,192,128,192,128,192C59.328,196.672,4.672,251.328,0,320C0,320,0,704,0,704C4.672,772.672,59.328,827.328,128,832C128,832,128,832,128,832M256,320C256,320,768,320,768,320C768,320,768,0,768,0C768,0,256,0,256,0C256,0,256,320,256,320M768,704C768,704,256,704,256,704C256,704,256,1024,256,1024C256,1024,768,1024,768,1024C768,1024,768,704,768,704M320,192C320,192,704,192,704,192C704,192,704,256,704,256C704,256,320,256,320,256C320,256,320,192,320,192M320,64C320,64,704,64,704,64C704,64,704,128,704,128C704,128,320,128,320,128C320,128,320,64,320,64" class="icon-printer"/><glyph unicode="&#x0066;" d="M1,512C1,118.424,427.06,-127.522,767.861,69.266C926.031,160.581,1023.482,329.369,1023.482,512C1023.482,905.576,597.421,1151.522,256.62,954.734C98.45,863.419,1,694.631,1,512M448.532,408.179C447.509,437.359,452.071,466.46,461.903,493.91C472.757,518.371,489.195,539.922,509.881,556.832C527.656,571.383,543.229,588.293,556.286,607.169C563.364,619.675,567.14,633.754,567.297,648.069C567.297,691.327,551.567,708.631,507.521,708.631C490.611,709.417,474.094,703.125,461.903,691.327C450.105,678.192,443.891,660.968,444.599,643.349C444.599,643.349,332.913,643.349,332.913,643.349C331.34,686.608,348.565,728.53,380.104,758.182C415.97,787.362,461.352,802.149,507.521,799.868C553.14,802.542,598.129,788.62,634.152,760.541C664.983,731.833,681.422,690.934,678.983,648.855C679.141,627.462,674.028,606.383,664.039,587.506C650.826,563.281,633.522,541.416,612.915,523.011C612.915,523.011,582.241,493.91,582.241,493.91C565.488,477.157,554.634,455.292,551.567,431.775C551.567,431.775,551.567,408.179,551.567,408.179C551.567,408.179,448.532,408.179,448.532,408.179M437.521,290.2C437.127,306.324,443.734,321.819,455.611,332.673C467.409,344.077,483.218,350.369,499.656,349.976C516.33,350.605,532.533,344.392,544.488,332.673C556.207,321.661,562.735,306.245,562.578,290.2C562.578,274.549,556.364,259.605,545.274,248.515C532.847,237.189,516.409,231.29,499.656,231.998C483.139,231.29,466.937,237.267,454.824,248.515C443.734,259.605,437.521,274.549,437.521,290.2C437.521,290.2,437.521,290.2,437.521,290.2" class="icon-question-tips"/><glyph unicode="&#x0067;" d="M1,512C1,118.424,427.06,-127.522,767.861,69.266C926.031,160.581,1023.482,329.369,1023.482,512C1023.482,905.576,597.421,1151.522,256.62,954.734C98.45,863.419,1,694.631,1,512M448.532,408.179C447.509,437.359,452.071,466.46,461.903,493.91C472.757,518.371,489.195,539.922,509.881,556.832C527.656,571.383,543.229,588.293,556.286,607.169C563.364,619.675,567.14,633.754,567.297,648.069C567.297,691.327,551.567,708.631,507.521,708.631C490.611,709.417,474.094,703.125,461.903,691.327C450.105,678.192,443.891,660.968,444.599,643.349C444.599,643.349,332.913,643.349,332.913,643.349C331.34,686.608,348.565,728.53,380.104,758.182C415.97,787.362,461.352,802.149,507.521,799.868C553.14,802.542,598.129,788.62,634.152,760.541C664.983,731.833,681.422,690.934,678.983,648.855C679.141,627.462,674.028,606.383,664.039,587.506C650.826,563.281,633.522,541.416,612.915,523.011C612.915,523.011,582.241,493.91,582.241,493.91C565.488,477.157,554.634,455.292,551.567,431.775C551.567,431.775,551.567,408.179,551.567,408.179C551.567,408.179,448.532,408.179,448.532,408.179M437.521,290.2C437.127,306.324,443.734,321.819,455.611,332.673C467.409,344.077,483.218,350.369,499.656,349.976C516.33,350.605,532.533,344.392,544.488,332.673C556.207,321.661,562.735,306.245,562.578,290.2C562.578,274.549,556.364,259.605,545.274,248.515C532.847,237.189,516.409,231.29,499.656,231.998C483.139,231.29,466.937,237.267,454.824,248.515C443.734,259.605,437.521,274.549,437.521,290.2C437.521,290.2,437.521,290.2,437.521,290.2" class="icon-question-tips-invert"/><glyph unicode="&#x0068;" d="M391.172,242.655C691.925,242.655,879.904,568.215,729.495,828.664C579.151,1089.112,203.194,1089.112,52.85,828.664C18.536,769.282,0.5,701.891,0.5,633.328C0.5,417.546,175.391,242.655,391.172,242.655C391.172,242.655,391.172,242.655,391.172,242.655M391.172,372.879C190.692,372.879,65.352,589.898,165.624,763.552C265.832,937.206,516.513,937.206,616.721,763.552C639.575,723.964,651.621,679.036,651.621,633.328C651.621,489.495,535.005,372.879,391.172,372.879C391.172,372.879,391.172,372.879,391.172,372.879M703.059,228.981C703.059,228.981,912.069,19.321,912.069,19.321C947.881,-16.491,1009.086,-0.148,1022.239,48.816C1028.294,71.54,1021.783,95.827,1005.179,112.431C1005.179,112.431,795.519,322.092,795.519,322.092C759.902,357.708,699.153,341.365,686.13,292.791C680.075,270.197,686.521,246.171,703.059,229.633C703.059,229.633,703.059,228.981,703.059,228.981" class="icon-search"/><glyph unicode="&#x0069;" d="M511.968,179.539C511.968,179.539,279.446,33.299,279.446,33.299C245.299,12.313,200.622,22.769,179.271,56.697C168.376,73.588,164.94,94.208,169.766,113.731C169.766,113.731,237.036,379.157,237.036,379.157C237.036,379.157,26.45,554.645,26.45,554.645C-4.699,580.456,-8.94,626.668,16.945,657.744C29.668,673.173,48.167,682.678,68.129,684.067C68.129,684.067,342.329,702.347,342.329,702.347C342.329,702.347,443.966,956.805,443.966,956.805C458.883,994.389,501.439,1012.742,539.022,997.753C557.741,990.294,572.511,975.524,579.97,956.805C579.97,956.805,681.606,702.347,681.606,702.347C681.606,702.347,955.076,684.067,955.076,684.067C995.804,681.728,1026.733,646.484,1023.809,605.829C1022.565,586.013,1013.352,567.514,998.216,554.645C998.216,554.645,786.899,379.157,786.899,379.157C786.899,379.157,854.17,113.731,854.17,113.731C868.428,59.256,818.414,9.827,764.159,24.67C757.213,26.571,750.559,29.496,744.49,33.299C744.49,33.299,511.968,179.539,511.968,179.539" class="icon-star"/><glyph unicode="&#x006a;" d="M512.385,1023.736C118.532,1023.736,-127.609,597.4,69.304,256.314C266.244,-84.771,758.527,-84.771,955.467,256.314C1000.366,334.077,1024,422.323,1024,512.121C1024,794.667,794.931,1023.736,512.385,1023.736C512.385,1023.736,512.385,1023.736,512.385,1023.736M783.032,476.725C783.032,476.725,479.712,476.725,479.712,476.725C479.712,476.725,479.712,856.284,479.712,856.284C479.712,856.284,554.861,856.284,554.861,856.284C554.861,856.284,554.861,552.964,554.861,552.964C554.861,552.964,783.032,552.964,783.032,552.964C783.032,552.964,783.032,476.725,783.032,476.725" class="icon-time"/><glyph unicode="&#x006b;" d="M794.283,1024C794.283,1024,229.717,1024,229.717,1024C102.912,1023.795,0.205,921.088,0,794.283C0,794.283,0,229.717,0,229.717C0.205,102.912,102.912,0.205,229.717,0C229.717,0,794.283,0,794.283,0C921.156,0,1024,102.844,1024,229.717C1024,229.717,1024,794.283,1024,794.283C1023.795,921.088,921.088,1023.795,794.283,1024C794.283,1024,794.283,1024,794.283,1024M770.731,439.979C796.911,418.816,819.098,393.148,836.267,364.203C858.453,328.021,812.032,325.291,812.032,325.291C812.032,325.291,723.968,325.291,723.968,325.291C708.13,323.994,692.395,328.772,679.936,338.603C648.533,359.765,614.4,418.816,591.531,409.6C568.661,400.384,567.637,348.843,567.637,348.843C567.808,342.596,565.897,336.452,562.176,331.435C557.09,327.27,550.946,324.676,544.427,323.925C544.427,323.925,504.832,323.925,504.832,323.925C442.197,325.427,382.976,352.87,341.333,399.701C257.365,486.741,183.637,659.456,183.637,659.456C183.637,659.456,179.541,671.061,183.637,676.181C187.733,681.301,204.8,682.667,204.8,682.667C204.8,682.667,299.349,682.667,299.349,682.667C304.708,681.438,309.794,679.219,314.368,676.181C318.02,673.314,320.853,669.559,322.56,665.259C332.356,640.102,343.757,615.595,356.693,591.872C395.947,523.605,414.379,508.587,428.032,516.096C447.147,527.019,441.344,612.352,441.344,612.352C441.958,627.917,438.682,643.413,431.787,657.408C424.209,665.873,413.73,671.232,402.432,672.427C396.971,672.427,405.845,685.397,417.109,690.859C443.733,698.948,471.654,701.85,499.371,699.392C515.072,700.382,530.807,699.119,546.133,695.637C580.267,687.787,567.637,657.408,567.637,584.704C567.637,561.493,563.541,528.725,580.267,516.437C587.776,511.659,605.525,516.437,648.533,590.848C662.767,615.595,675.089,641.365,685.397,667.989C687.411,672.324,690.449,676.079,694.272,678.912C698.197,680.789,702.566,681.506,706.901,680.96C706.901,680.96,806.571,680.96,806.571,680.96C806.571,680.96,836.267,684.373,840.704,671.061C845.141,657.749,829.44,623.957,788.821,568.661C722.944,482.987,716.8,491.179,770.731,439.979C770.731,439.979,770.731,439.979,770.731,439.979" class="icon-vk"/><glyph unicode="&#x006c;" d="M595.885,795.743C644.955,801.523,694.819,795.29,740.942,777.611C756.241,769.111,768.707,756.646,777.206,741.347C794.885,695.223,801.118,645.36,795.338,596.289C795.338,596.289,795.338,428.567,795.338,428.567C801.118,379.497,794.885,329.634,777.206,283.51C769.387,267.758,756.694,255.065,740.942,247.246C694.819,229.567,644.955,223.334,595.885,229.114C595.885,229.114,428.163,229.114,428.163,229.114C379.093,223.334,329.229,229.567,283.106,247.246C267.354,255.065,254.661,267.758,246.842,283.51C229.163,329.634,222.93,379.497,228.709,428.567C228.709,428.567,228.709,596.289,228.709,596.289C222.93,645.36,229.163,695.223,246.842,741.347C254.661,757.099,267.354,769.791,283.106,777.611C329.229,795.29,379.093,801.523,428.163,795.743C428.163,795.743,595.885,795.743,595.885,795.743M175.446,977.064C120.937,947.599,76.286,902.722,47.388,847.873C9.651,769.678,-5.988,682.757,2.058,596.289C2.058,596.289,2.058,428.567,2.058,428.567C-5.875,341.76,9.764,254.499,47.388,175.851C76.626,121.568,121.163,77.031,175.446,47.793C254.094,10.282,341.355,-5.357,428.163,2.462C428.163,2.462,595.885,2.462,595.885,2.462C682.693,-5.357,769.954,10.282,848.602,47.793C902.885,77.031,947.422,121.568,976.66,175.851C1014.284,254.499,1029.923,341.76,1021.99,428.567C1021.99,428.567,1021.99,596.289,1021.99,596.289C1029.923,683.097,1014.284,770.358,976.66,849.006C947.195,903.516,902.318,948.166,847.468,977.064C769.274,1014.802,682.353,1030.441,595.885,1022.395C595.885,1022.395,428.163,1022.395,428.163,1022.395C341.355,1030.327,254.094,1014.688,175.446,977.064C175.446,977.064,175.446,977.064,175.446,977.064" class="icon-bullet"/></font>
</defs>
</svg>
